<?xml version="1.0" standalone="no"?>
<!DOCTYPE svg PUBLIC "-//W3C//DTD SVG 20010904//EN"
 "http://www.w3.org/TR/2001/REC-SVG-20010904/DTD/svg10.dtd">
<svg version="1.0" xmlns="http://www.w3.org/2000/svg"
 width="79.000000pt" height="91.000000pt" viewBox="0 0 79.000000 91.000000"
 preserveAspectRatio="xMidYMid meet">

<g transform="translate(0.000000,91.000000) scale(0.100000,-0.100000)"
fill="#000000" stroke="none">
<path d="M66 889 l-26 -20 0 -395 c0 -252 4 -402 10 -415 25 -46 50 -49 374
-49 l305 0 28 24 28 24 3 397 3 396 -30 29 -29 30 -320 0 c-308 0 -320 -1
-346 -21z m657 -10 c12 -7 25 -17 29 -23 4 -6 8 -121 8 -255 0 -218 -2 -243
-16 -237 -23 9 -37 -3 -23 -20 14 -17 -2 -19 -19 -2 -18 18 -94 14 -125 -7
-31 -20 -57 -63 -57 -95 0 -19 -5 -20 -185 -20 l-185 0 0 328 c0 181 3 332 7
335 12 13 542 8 566 -4z m-593 -324 c0 -314 -1 -325 -20 -337 -11 -7 -20 -15
-20 -18 0 -3 96 -3 214 -2 l213 4 21 -36 21 -36 -180 0 c-140 0 -180 -3 -177
-12 4 -10 71 -14 281 -16 288 -2 297 -4 260 -44 -15 -17 -38 -18 -326 -18
-305 0 -311 0 -334 22 -28 26 -30 73 -6 100 16 18 16 19 -5 25 l-22 5 0 324
c0 292 2 326 17 344 10 11 28 20 40 20 l23 0 0 -325z m550 -250 c31 -16 50
-43 50 -69 0 -9 -4 -16 -10 -16 -6 0 -9 6 -7 13 1 7 -10 13 -25 15 -22 3 -28
9 -28 28 0 13 -4 24 -10 24 -5 0 -10 -18 -10 -40 l0 -40 -40 0 c-30 0 -40 4
-40 16 0 28 21 55 53 69 40 18 33 18 67 0z m80 -5 c0 -5 -2 -10 -4 -10 -3 0
-8 5 -11 10 -3 6 -1 10 4 10 6 0 11 -4 11 -10z m-40 -108 c0 -20 -43 -46 -75
-46 -32 0 -75 26 -75 46 0 4 34 8 75 8 41 0 75 -4 75 -8z m40 -42 c0 -11 -7
-20 -15 -20 -13 0 -13 3 -3 20 7 11 14 20 15 20 2 0 3 -9 3 -20z"/>
<path d="M304 727 c-2 -7 -3 -62 -2 -122 l3 -109 150 1 150 1 0 118 0 119
-148 3 c-116 2 -149 0 -153 -11z m291 -112 l0 -100 -140 0 -140 0 -3 70 c-2
39 0 85 3 103 l6 33 137 -3 137 -3 0 -100z"/>
</g>
</svg>
