<?xml version="1.0" standalone="no"?>
<!DOCTYPE svg PUBLIC "-//W3C//DTD SVG 20010904//EN"
 "http://www.w3.org/TR/2001/REC-SVG-20010904/DTD/svg10.dtd">
<svg version="1.0" xmlns="http://www.w3.org/2000/svg"
 width="75.000000pt" height="90.000000pt" viewBox="0 0 75.000000 90.000000"
 preserveAspectRatio="xMidYMid meet">

<g transform="translate(0.000000,90.000000) scale(0.100000,-0.100000)"
fill="#000000" stroke="none">
<path d="M26 879 l-26 -20 0 -395 c0 -252 4 -402 10 -415 25 -46 50 -49 374
-49 l305 0 28 24 28 24 3 397 3 396 -30 29 -29 30 -320 0 c-308 0 -320 -1
-346 -21z m657 -10 c12 -7 25 -17 29 -23 4 -6 8 -152 8 -323 l0 -313 -305 0
-305 0 0 328 c0 181 3 332 7 335 12 13 542 8 566 -4z m-593 -324 c0 -314 -1
-325 -20 -337 -11 -7 -20 -15 -20 -18 0 -3 150 -5 332 -5 l333 0 3 -33 3 -32
-281 0 c-221 0 -281 -3 -278 -12 4 -10 71 -14 281 -16 288 -2 297 -4 260 -44
-15 -17 -38 -18 -326 -18 -305 0 -311 0 -334 22 -28 26 -30 73 -6 100 16 18
16 19 -5 25 l-22 5 0 324 c0 292 2 326 17 344 10 11 28 20 40 20 l23 0 0 -325z"/>
<path d="M264 717 c-2 -7 -3 -62 -2 -122 l3 -109 150 1 150 1 0 118 0 119
-148 3 c-116 2 -149 0 -153 -11z m291 -112 l0 -100 -140 0 -140 0 -3 70 c-2
39 0 85 3 103 l6 33 137 -3 137 -3 0 -100z"/>
</g>
</svg>
